<?xml version="1.0" encoding="UTF-8"?>
<svg version="1.1" xmlns="http://www.w3.org/2000/svg" width="964" height="964">
<path d="M0 0 C318.12 0 636.24 0 964 0 C964 318.12 964 636.24 964 964 C645.88 964 327.76 964 0 964 C0 645.88 0 327.76 0 0 Z " fill="#FEFEFE" transform="translate(0,0)"/>
<path d="M0 0 C1.55352173 -0.02030273 1.55352173 -0.02030273 3.13842773 -0.04101562 C10.58179263 0.00135312 17.24250208 1.28057419 24.375 3.375 C24.375 4.035 24.375 4.695 24.375 5.375 C25.550625 5.643125 26.72625 5.91125 27.9375 6.1875 C31.98142688 7.18947119 35.5917107 8.6409924 39.375 10.375 C39.375 11.035 39.375 11.695 39.375 12.375 C39.94347656 12.55675781 40.51195312 12.73851562 41.09765625 12.92578125 C45.98201003 14.51584634 50.68529027 16.27959778 55.375 18.375 C55.375 19.035 55.375 19.695 55.375 20.375 C56.22578125 20.56642578 56.22578125 20.56642578 57.09375 20.76171875 C59.46329524 21.3987369 61.62124553 22.21884868 63.875 23.1875 C65.00421875 23.66123047 65.00421875 23.66123047 66.15625 24.14453125 C68.375 25.375 68.375 25.375 70.30078125 27.328125 C72.70917651 29.70477117 75.00835617 30.8712635 78.0625 32.3125 C83.27685761 34.82690803 88.34817103 37.50615316 93.375 40.375 C93.375 41.035 93.375 41.695 93.375 42.375 C94.08011719 42.48714844 94.78523438 42.59929687 95.51171875 42.71484375 C98.64889512 43.43814908 101.27627906 44.56957691 104.1875 45.9375 C105.65123047 46.62005859 105.65123047 46.62005859 107.14453125 47.31640625 C107.88058594 47.66574219 108.61664062 48.01507813 109.375 48.375 C109.375 49.035 109.375 49.695 109.375 50.375 C110.08269531 50.49230469 110.79039062 50.60960937 111.51953125 50.73046875 C114.56694094 51.41832456 117.19517843 52.4509915 120.0625 53.6875 C121.12082031 54.13480469 122.17914062 54.58210938 123.26953125 55.04296875 C125.14629295 55.84796968 127.0197672 56.66078329 128.88671875 57.48828125 C135.84308083 60.46629411 142.95713828 61.96410987 150.375 63.375 C150.375 64.035 150.375 64.695 150.375 65.375 C153.35351562 65.32617188 153.35351562 65.32617188 156.33203125 65.27734375 C158.375 65.375 158.375 65.375 161.375 66.375 C161.375 67.365 161.375 68.355 161.375 69.375 C159.46217875 70.21712256 157.54457527 71.04838864 155.625 71.875 C154.55765625 72.3390625 153.4903125 72.803125 152.390625 73.28125 C149.375 74.375 149.375 74.375 145.375 74.375 C145.375 75.035 145.375 75.695 145.375 76.375 C129.64201336 80.66581454 112.18211321 80.58567652 96.375 76.375 C96.375 75.715 96.375 75.055 96.375 74.375 C95.22 74.2925 94.065 74.21 92.875 74.125 C85.55853585 73.33815715 78.47324136 71.2475422 71.375 69.375 C71.375 68.715 71.375 68.055 71.375 67.375 C70.54742188 67.25253906 69.71984375 67.13007813 68.8671875 67.00390625 C65.0153979 66.31023944 61.27055126 65.34647869 57.5 64.3125 C56.81164062 64.12623047 56.12328125 63.93996094 55.4140625 63.74804688 C53.73367486 63.29294189 52.05423678 62.83433322 50.375 62.375 C50.375 61.715 50.375 61.055 50.375 60.375 C49.7763916 60.25527832 49.1777832 60.13555664 48.56103516 60.01220703 C39.1656901 58.13313802 29.77034505 56.25406901 20.375 54.375 C20.375 53.715 20.375 53.055 20.375 52.375 C-0.94880873 50.50916674 -19.57254953 51.25449253 -39.55859375 59.60546875 C-41.625 60.375 -41.625 60.375 -43.625 60.375 C-43.625 61.035 -43.625 61.695 -43.625 62.375 C-45.41453185 63.21290789 -47.20669695 64.04519396 -49 64.875 C-49.99773437 65.3390625 -50.99546875 65.803125 -52.0234375 66.28125 C-54.625 67.375 -54.625 67.375 -56.625 67.375 C-56.955 68.365 -57.285 69.355 -57.625 70.375 C-59.48127106 71.32001072 -61.34361569 72.25494016 -63.234375 73.12890625 C-66.83748661 75.00699874 -69.99270052 77.44400831 -73.23046875 79.88671875 C-75.74965423 81.45247677 -77.7057683 81.98611478 -80.625 82.375 C-80.955 83.365 -81.285 84.355 -81.625 85.375 C-83.33203125 86.54296875 -83.33203125 86.54296875 -85.4375 87.5625 C-86.12457031 87.90667969 -86.81164062 88.25085938 -87.51953125 88.60546875 C-89.625 89.375 -89.625 89.375 -93.625 89.375 C-93.934375 90.24125 -93.934375 90.24125 -94.25 91.125 C-96.17882485 94.28125884 -98.19793595 96.08820967 -101.625 97.375 C-106.98774536 98.10962265 -112.57134084 98.53576931 -117.3125 95.5625 C-119.625 93.375 -119.625 93.375 -120.625 90.375 C-122.52829495 89.87413291 -124.43557627 89.38395836 -126.359375 88.96875 C-131.61560276 87.59125583 -135.83216272 85.20807958 -139.625 81.375 C-141.32050341 80.39682496 -143.01802122 79.4215787 -144.734375 78.48046875 C-146.63840788 77.36716027 -148.36143053 76.1351771 -150.125 74.8125 C-152.46727388 73.08744694 -154.67554531 71.83318455 -157.375 70.75 C-160.625 69.375 -160.625 69.375 -162.03515625 67.92578125 C-163.9664622 66.04192753 -165.83293456 65.2296362 -168.3125 64.1875 C-169.12074219 63.84332031 -169.92898438 63.49914062 -170.76171875 63.14453125 C-171.37660156 62.89058594 -171.99148438 62.63664062 -172.625 62.375 C-172.625 61.715 -172.625 61.055 -172.625 60.375 C-173.841875 60.106875 -175.05875 59.83875 -176.3125 59.5625 C-179.14903327 58.93712259 -181.97693267 58.29015522 -184.80078125 57.609375 C-191.08937625 56.10188572 -197.17968893 54.9212128 -203.625 54.375 C-203.625 53.715 -203.625 53.055 -203.625 52.375 C-216.825 52.705 -230.025 53.035 -243.625 53.375 C-243.625 54.035 -243.625 54.695 -243.625 55.375 C-244.85734375 55.48457031 -246.0896875 55.59414063 -247.359375 55.70703125 C-255.8290378 56.50379297 -263.98474404 57.37597419 -272.1796875 59.7890625 C-274.7455114 60.40387653 -276.99657038 60.47862984 -279.625 60.375 C-279.625 61.035 -279.625 61.695 -279.625 62.375 C-280.59179688 62.67792969 -281.55859375 62.98085938 -282.5546875 63.29296875 C-291.3986463 66.1116177 -291.3986463 66.1116177 -299.8125 70 C-305.15074881 72.85366757 -310.73287744 74.1297576 -316.625 75.375 C-316.625 76.035 -316.625 76.695 -316.625 77.375 C-322.68875739 79.49731509 -328.23250121 79.683951 -334.625 79.625 C-335.63506104 79.62113281 -336.64512207 79.61726563 -337.68579102 79.61328125 C-345.79964381 79.520308 -353.63580362 78.78857029 -361.625 77.375 C-361.625 76.715 -361.625 76.055 -361.625 75.375 C-362.18445313 75.33761719 -362.74390625 75.30023438 -363.3203125 75.26171875 C-370.91016771 74.63939943 -378.21030596 73.07375555 -385.625 71.375 C-385.295 70.385 -384.965 69.395 -384.625 68.375 C-382.13858284 67.48784161 -379.80385156 66.79748127 -377.25 66.1875 C-376.56421875 66.01025391 -375.8784375 65.83300781 -375.171875 65.65039062 C-372.24955128 64.91412424 -369.64921556 64.375 -366.625 64.375 C-366.625 63.715 -366.625 63.055 -366.625 62.375 C-364.58490245 61.72422704 -362.54284331 61.07960176 -360.5 60.4375 C-359.36304688 60.07785156 -358.22609375 59.71820313 -357.0546875 59.34765625 C-353.91067301 58.45601661 -350.85605607 57.84148986 -347.625 57.375 C-347.625 56.715 -347.625 56.055 -347.625 55.375 C-345.69032058 54.53513916 -343.75214871 53.70331973 -341.8125 52.875 C-340.73355469 52.4109375 -339.65460938 51.946875 -338.54296875 51.46875 C-335.625 50.375 -335.625 50.375 -332.625 50.375 C-332.295 49.385 -331.965 48.395 -331.625 47.375 C-329.0078125 45.98828125 -329.0078125 45.98828125 -325.75 44.6875 C-324.68007813 44.25050781 -323.61015625 43.81351562 -322.5078125 43.36328125 C-319.625 42.375 -319.625 42.375 -316.625 42.375 C-316.625 41.715 -316.625 41.055 -316.625 40.375 C-315.69300781 39.87871094 -314.76101563 39.38242187 -313.80078125 38.87109375 C-312.51299543 38.18494351 -311.2252371 37.49874167 -309.9375 36.8125 C-309.25921143 36.45115967 -308.58092285 36.08981934 -307.88208008 35.7175293 C-304.61197804 33.97395804 -301.34421003 32.22653133 -298.0859375 30.4609375 C-279.469163 20.375 -279.469163 20.375 -276.625 20.375 C-276.625 19.715 -276.625 19.055 -276.625 18.375 C-275.52800781 17.97667969 -274.43101562 17.57835937 -273.30078125 17.16796875 C-271.84625618 16.63307888 -270.39183452 16.09790775 -268.9375 15.5625 C-268.21626953 15.30146484 -267.49503906 15.04042969 -266.75195312 14.77148438 C-263.67063789 13.63181984 -260.88428637 12.53382779 -258.07421875 10.8125 C-254.91601237 8.95887967 -251.64297397 8.08266763 -248.125 7.1875 C-247.14853516 6.92163086 -247.14853516 6.92163086 -246.15234375 6.65039062 C-242.56791489 5.7126461 -239.32958792 5.16839798 -235.625 5.375 C-235.625 4.715 -235.625 4.055 -235.625 3.375 C-230.24738358 2.47396321 -225.07253681 2.22257951 -219.625 2.25 C-218.85671875 2.24613281 -218.0884375 2.24226563 -217.296875 2.23828125 C-212.63703749 2.24620614 -208.22127268 2.60487984 -203.625 3.375 C-203.625 4.035 -203.625 4.695 -203.625 5.375 C-202.69494141 5.41367187 -202.69494141 5.41367187 -201.74609375 5.453125 C-193.35521387 5.99053215 -185.6581676 8.04418889 -177.625 10.375 C-177.625 11.035 -177.625 11.695 -177.625 12.375 C-174.29647034 13.06721635 -170.96220938 13.72597636 -167.625 14.375 C-166.67496094 14.56578125 -165.72492188 14.7565625 -164.74609375 14.953125 C-153.93522264 16.96846715 -143.9186232 17.67514995 -133.625 13.375 C-132.635 13.045 -131.645 12.715 -130.625 12.375 C-129.29026831 11.04306649 -127.95711512 9.70955043 -126.625 8.375 C-121.27436404 4.70117752 -115.64240026 1.25151955 -108.96875 1.7109375 C-103.97240406 3.12656885 -99.58625603 6.07159542 -95.625 9.375 C-95.295 10.365 -94.965 11.355 -94.625 12.375 C-92.32965742 13.51045562 -92.32965742 13.51045562 -89.625 14.375 C-88.89925781 14.71660156 -88.17351562 15.05820312 -87.42578125 15.41015625 C-83.94251086 16.61011132 -80.70543608 16.75680366 -77.0625 16.75 C-76.33812744 16.75128906 -75.61375488 16.75257813 -74.86743164 16.75390625 C-65.58902497 16.58093733 -56.63006161 14.46097084 -47.625 12.375 C-47.625 11.715 -47.625 11.055 -47.625 10.375 C-44.8768872 9.53496552 -42.12680419 8.70277849 -39.375 7.875 C-38.59769531 7.63652344 -37.82039063 7.39804687 -37.01953125 7.15234375 C-35.88837891 6.81396484 -35.88837891 6.81396484 -34.734375 6.46875 C-34.04311523 6.25927734 -33.35185547 6.04980469 -32.63964844 5.83398438 C-30.625 5.375 -30.625 5.375 -26.625 5.375 C-26.625 4.715 -26.625 4.055 -26.625 3.375 C-17.73330449 0.70271942 -9.23498613 0.04941799 0 0 Z " fill="#AE862F" transform="translate(515.625,326.625)"/>
<path d="M0 0 C0.99 0.495 0.99 0.495 2 1 C0.68 1.33 -0.64 1.66 -2 2 C-2 2.99 -2 3.98 -2 5 C-3.010625 5.433125 -4.02125 5.86625 -5.0625 6.3125 C-5.69542969 6.58578125 -6.32835937 6.8590625 -6.98046875 7.140625 C-8.31056971 7.70662541 -9.64651451 8.25911387 -10.98828125 8.796875 C-14.67521672 10.08428975 -14.67521672 10.08428975 -17 13 C-19.5625 13.625 -19.5625 13.625 -22 14 C-22.33 14.99 -22.66 15.98 -23 17 C-24.65249487 17.70105843 -26.32367583 18.35800351 -28 19 C-29.30510935 19.79072663 -30.59585099 20.6054322 -31.875 21.4375 C-35.44304334 23.73124215 -39.0948899 25.33671236 -43 27 C-45.73303213 28.71484369 -48.33009513 30.45694945 -50.8359375 32.48828125 C-53.28932792 34.20211174 -55.62588647 35.1697037 -58.4375 36.1875 C-59.36433594 36.53167969 -60.29117188 36.87585938 -61.24609375 37.23046875 C-63.97727636 37.99365027 -66.18179685 38.14832648 -69 38 C-69 38.66 -69 39.32 -69 40 C-74.08274158 43.04964495 -79.28309338 44.03409422 -85.07421875 45.15625 C-87.9978403 45.99937718 -89.15174214 46.64885926 -91 49 C-89.37884308 49.63490176 -87.75277293 50.25725792 -86.125 50.875 C-84.76761719 51.39707031 -84.76761719 51.39707031 -83.3828125 51.9296875 C-74.41133962 54.76823666 -65.81903266 55.36460495 -56.4375 55.375 C-55.27025391 55.39949219 -54.10300781 55.42398438 -52.90039062 55.44921875 C-45.84609172 55.47306427 -40.02877113 54.89085652 -34 51 C-33.49009521 50.47970215 -32.98019043 49.9594043 -32.45483398 49.42333984 C-30.54886818 47.55863425 -28.55358155 47.23393113 -26.01953125 46.59375 C-22.96266618 45.69501984 -20.14732899 44.32968076 -17.25390625 43.0078125 C-11.75653082 40.54971395 -6.04879602 38.61026323 -0.32421875 36.75390625 C1.20015602 36.25944519 2.71882739 35.74696269 4.23046875 35.21484375 C17.43970058 30.81176647 31.22666931 30.69316838 45 31 C45 31.33 45 31.66 45 32 C42.36 32 39.72 32 37 32 C37 32.66 37 33.32 37 34 C35.76765625 34.10957031 34.5353125 34.21914063 33.265625 34.33203125 C24.7959622 35.12879297 16.64025596 36.00097419 8.4453125 38.4140625 C5.8794886 39.02887653 3.62842962 39.10362984 1 39 C1 39.66 1 40.32 1 41 C0.03320312 41.30292969 -0.93359375 41.60585938 -1.9296875 41.91796875 C-10.7736463 44.7366177 -10.7736463 44.7366177 -19.1875 48.625 C-24.52574881 51.47866757 -30.10787744 52.7547576 -36 54 C-36 54.66 -36 55.32 -36 56 C-42.06375739 58.12231509 -47.60750121 58.308951 -54 58.25 C-55.01006104 58.24613281 -56.02012207 58.24226563 -57.06079102 58.23828125 C-65.17464381 58.145308 -73.01080362 57.41357029 -81 56 C-81 55.34 -81 54.68 -81 54 C-81.55945313 53.96261719 -82.11890625 53.92523438 -82.6953125 53.88671875 C-90.28516771 53.26439943 -97.58530596 51.69875555 -105 50 C-104.67 49.01 -104.34 48.02 -104 47 C-101.51358284 46.11284161 -99.17885156 45.42248127 -96.625 44.8125 C-95.93921875 44.63525391 -95.2534375 44.45800781 -94.546875 44.27539062 C-91.62455128 43.53912424 -89.02421556 43 -86 43 C-86 42.34 -86 41.68 -86 41 C-83.95990245 40.34922704 -81.91784331 39.70460176 -79.875 39.0625 C-78.73804688 38.70285156 -77.60109375 38.34320313 -76.4296875 37.97265625 C-73.28567301 37.08101661 -70.23105607 36.46648986 -67 36 C-67 35.34 -67 34.68 -67 34 C-65.06532058 33.16013916 -63.12714871 32.32831973 -61.1875 31.5 C-60.10855469 31.0359375 -59.02960938 30.571875 -57.91796875 30.09375 C-55 29 -55 29 -52 29 C-51.505 27.515 -51.505 27.515 -51 26 C-48.3828125 24.61328125 -48.3828125 24.61328125 -45.125 23.3125 C-44.05507812 22.87550781 -42.98515625 22.43851562 -41.8828125 21.98828125 C-39 21 -39 21 -36 21 C-36 20.34 -36 19.68 -36 19 C-35.06800781 18.50371094 -34.13601562 18.00742187 -33.17578125 17.49609375 C-31.8879908 16.8099522 -30.60023284 16.12374967 -29.3125 15.4375 C-28.63566162 15.07688477 -27.95882324 14.71626953 -27.26147461 14.34472656 C-22.85380959 11.99438386 -18.45577908 9.62711462 -14.0625 7.25 C-12.04239336 6.1653122 -10.02163029 5.0818454 -8 4 C-6.75476563 3.32710938 -6.75476563 3.32710938 -5.484375 2.640625 C-3.6880429 1.69722757 -1.84831856 0.83697444 0 0 Z " fill="#A39056" transform="translate(235,348)"/>
<path d="M0 0 C3.89184452 -0.10059445 7.78316254 -0.17225841 11.67602539 -0.21972656 C13.63389776 -0.24919327 15.59141099 -0.30007758 17.54882812 -0.3515625 C26.45614515 -0.44222222 33.63888646 1.04538788 42 4 C43.49493036 4.37498967 44.99454662 4.73228166 46.5 5.0625 C49.89892226 5.97292561 52.04645825 7.15403641 55 9 C56.38975072 9.4965323 57.78619138 9.97459015 59.1875 10.4375 C62.83986815 11.72777585 62.83986815 11.72777585 64.25 14.125 C64.4975 14.74375 64.745 15.3625 65 16 C67.05000871 16.80528889 67.05000871 16.80528889 69 17 C69 17.66 69 18.32 69 19 C70.0725 19.28875 71.145 19.5775 72.25 19.875 C79.33333333 22 79.33333333 22 82 26 C84.56282742 26.72965366 84.56282742 26.72965366 87 27 C87 27.66 87 28.32 87 29 C87.99 29.12375 87.99 29.12375 89 29.25 C92.99039163 30.24759791 96.38549643 32.07166683 100 34 C100 34.66 100 35.32 100 36 C102.64 36.33 105.28 36.66 108 37 C108.33 37.99 108.66 38.98 109 40 C109.99 40 110.98 40 112 40 C112 40.66 112 41.32 112 42 C116.44421603 42.39213671 119.18687075 41.25321274 123 39 C123.495 38.01 123.495 38.01 124 37 C126.5315866 36.36198164 128.99839502 35.83312632 131.5625 35.375 C132.27341797 35.2409375 132.98433594 35.106875 133.71679688 34.96875 C135.47642553 34.63808153 137.23804548 34.31804233 139 34 C136.84490089 36.42529064 136.30151247 36.95692679 132.9375 37.4375 C131.968125 37.623125 130.99875 37.80875 130 38 C128.94978897 39.84971696 128.94978897 39.84971696 128 42 C124.13897923 45.65780915 121.31354349 46.3154104 116 46.5 C110.71528775 46.32274878 107.84347948 45.63572383 104 42 C103.67 41.01 103.34 40.02 103 39 C101.09670505 38.49913291 99.18942373 38.00895836 97.265625 37.59375 C92.00939724 36.21625583 87.79283728 33.83307958 84 30 C82.30449659 29.02182496 80.60697878 28.0465787 78.890625 27.10546875 C76.98659212 25.99216027 75.26356947 24.7601771 73.5 23.4375 C71.15772612 21.71244694 68.94945469 20.45818455 66.25 19.375 C63 18 63 18 61.58984375 16.55078125 C59.6585378 14.66692753 57.79206544 13.8546362 55.3125 12.8125 C54.50425781 12.46832031 53.69601562 12.12414062 52.86328125 11.76953125 C52.24839844 11.51558594 51.63351562 11.26164062 51 11 C51 10.34 51 9.68 51 9 C49.783125 8.731875 48.56625 8.46375 47.3125 8.1875 C44.47596673 7.56212259 41.64806733 6.91515522 38.82421875 6.234375 C32.53562375 4.72688572 26.44531107 3.5462128 20 3 C20 2.34 20 1.68 20 1 C13.4 1 6.8 1 0 1 C0 0.67 0 0.34 0 0 Z " fill="#AC955A" transform="translate(292,378)"/>
<path d="M0 0 C0.76828125 -0.00386719 1.5365625 -0.00773437 2.328125 -0.01171875 C6.98796251 -0.00379386 11.40372732 0.35487984 16 1.125 C16 1.785 16 2.445 16 3.125 C16.93005859 3.16367187 16.93005859 3.16367187 17.87890625 3.203125 C26.26978613 3.74053215 33.9668324 5.79418889 42 8.125 C42 8.785 42 9.445 42 10.125 C45.32852966 10.81721635 48.66279062 11.47597636 52 12.125 C52.95003906 12.31578125 53.90007812 12.5065625 54.87890625 12.703125 C65.68977736 14.71846715 75.7063768 15.42514995 86 11.125 C86.99 10.795 87.98 10.465 89 10.125 C90.33473169 8.79306649 91.66788488 7.45955043 93 6.125 C98.35063596 2.45117752 103.98259974 -0.99848045 110.65625 -0.5390625 C115.65259594 0.87656885 120.03874397 3.82159542 124 7.125 C124.33 8.115 124.66 9.105 125 10.125 C127.50447516 11.34369929 127.50447516 11.34369929 130 12.125 C128.375 12.875 128.375 12.875 126 13.125 C120.288 9.989 120.288 9.989 119 6.125 C115.79291507 5.40081953 112.56894512 4.87869579 109.3125 4.4375 C108.54550781 4.33050781 107.77851563 4.22351563 106.98828125 4.11328125 C104.76292893 3.89345311 104.76292893 3.89345311 103 6.125 C101.88625 6.41375 100.7725 6.7025 99.625 7 C95.81605648 8.18208592 94.68340016 9.3490688 92 12.125 C90.68 12.125 89.36 12.125 88 12.125 C88 12.785 88 13.445 88 14.125 C85.69 14.455 83.38 14.785 81 15.125 C80.67 16.115 80.34 17.105 80 18.125 C68.0030111 18.66554018 57.55987614 17.36581634 46 14.125 C46 13.465 46 12.805 46 12.125 C44.01432292 12.19010417 42.02864583 12.25520833 40.04296875 12.3203125 C38 12.125 38 12.125 35 10.125 C33.01200182 9.42335358 31.01301483 8.75127128 29 8.125 C29 7.465 29 6.805 29 6.125 C27.91332031 6.05152344 27.91332031 6.05152344 26.8046875 5.9765625 C25.35449219 5.86441406 25.35449219 5.86441406 23.875 5.75 C22.44800781 5.64558594 22.44800781 5.64558594 20.9921875 5.5390625 C18 5.125 18 5.125 15.23242188 4.125 C11.78372541 3.05809209 8.89126079 2.81008057 5.2890625 2.7109375 C3.42314453 2.65292969 3.42314453 2.65292969 1.51953125 2.59375 C0.23433594 2.5628125 -1.05085938 2.531875 -2.375 2.5 C-3.68339844 2.46132813 -4.99179687 2.42265625 -6.33984375 2.3828125 C-9.55975716 2.28880043 -12.7796688 2.20314179 -16 2.125 C-16 1.795 -16 1.465 -16 1.125 C-10.62238358 0.22396321 -5.44753681 -0.02742049 0 0 Z " fill="#A9925C" transform="translate(296,328.875)"/>
<path d="M0 0 C1.24910156 -0.00128906 2.49820312 -0.00257813 3.78515625 -0.00390625 C5.09355469 -0.00003906 6.40195312 0.00382812 7.75 0.0078125 C9.02746094 0.00394531 10.30492187 0.00007813 11.62109375 -0.00390625 C30.94924069 0.01587691 30.94924069 0.01587691 39.75 3.1328125 C43.40311844 3.88073508 47.07240307 4.51769842 50.75 5.1328125 C50.75 5.7928125 50.75 6.4528125 50.75 7.1328125 C52.703125 7.26302083 54.65625 7.39322917 56.609375 7.5234375 C58.75 8.1328125 58.75 8.1328125 60.57421875 10.12109375 C63.56476686 12.88614272 65.79461244 12.76699731 69.8125 13.0703125 C75.84596134 13.66658789 80.6348887 15.0791129 86.03515625 17.83203125 C90.02327374 19.74288467 94.18773546 20.96169146 98.4140625 22.23828125 C100.75 23.1328125 100.75 23.1328125 101.75 25.1328125 C94.79339229 24.56259875 88.43572695 23.11978556 81.75 21.1328125 C81.75 20.4728125 81.75 19.8128125 81.75 19.1328125 C80.92242188 19.01035156 80.09484375 18.88789063 79.2421875 18.76171875 C75.3903979 18.06805194 71.64555126 17.10429119 67.875 16.0703125 C67.18664062 15.88404297 66.49828125 15.69777344 65.7890625 15.50585938 C64.10867486 15.05075439 62.42923678 14.59214572 60.75 14.1328125 C60.75 13.4728125 60.75 12.8128125 60.75 12.1328125 C60.1513916 12.01309082 59.5527832 11.89336914 58.93603516 11.77001953 C49.5406901 9.89095052 40.14534505 8.01188151 30.75 6.1328125 C30.75 5.4728125 30.75 4.8128125 30.75 4.1328125 C17.03589004 2.93282788 3.4535941 2.50696235 -10.25 4.1328125 C-9.92 3.1428125 -9.59 2.1528125 -9.25 1.1328125 C-5.94571283 0.03138344 -3.47872378 0.00347475 0 0 Z " fill="#A18A45" transform="translate(505.25,374.8671875)"/>
<path d="M0 0 C3.83723142 0.63604382 7.11996579 1.77403064 10.6875 3.3125 C11.74582031 3.75980469 12.80414062 4.20710938 13.89453125 4.66796875 C15.77129295 5.47296968 17.6447672 6.28578329 19.51171875 7.11328125 C26.46808083 10.09129411 33.58213828 11.58910987 41 13 C41 13.66 41 14.32 41 15 C43.97851562 14.95117188 43.97851562 14.95117188 46.95703125 14.90234375 C49 15 49 15 52 16 C52 16.99 52 17.98 52 19 C50.08717875 19.84212256 48.16957527 20.67338864 46.25 21.5 C45.18265625 21.9640625 44.1153125 22.428125 43.015625 22.90625 C40 24 40 24 36 24 C36 24.66 36 25.32 36 26 C23.76035226 29.33808575 12.18281134 29.43323575 -0.375 28.125 C-1.16060303 28.04660889 -1.94620605 27.96821777 -2.75561523 27.88745117 C-6.54124011 27.46238854 -9.71392041 27.09114156 -13 25 C-7.09406501 24.74986628 -1.53251507 25.15906925 4.3125 26.0625 C12.21668883 27.20198712 20.33134272 27.55621909 28 25 C28.33 24.34 28.66 23.68 29 23 C31.94140625 22.5859375 31.94140625 22.5859375 35.5625 22.375 C36.76003906 22.30023438 37.95757813 22.22546875 39.19140625 22.1484375 C40.58166016 22.07496094 40.58166016 22.07496094 42 22 C42 20.68 42 19.36 42 18 C40.40671875 17.61908203 40.40671875 17.61908203 38.78125 17.23046875 C20.81686788 12.87791192 20.81686788 12.87791192 15 9 C15 8.34 15 7.68 15 7 C13.92685547 6.81630859 13.92685547 6.81630859 12.83203125 6.62890625 C9.94887287 5.98864625 7.41407527 5.06448444 4.6875 3.9375 C3.80449219 3.57527344 2.92148437 3.21304687 2.01171875 2.83984375 C1.34785156 2.56269531 0.68398438 2.28554688 0 2 C0 1.34 0 0.68 0 0 Z " fill="#A89D76" transform="translate(625,377)"/>
<path d="M0 0 C-3 2 -3 2 -6.5625 3 C-10.03073325 3.70977006 -10.03073325 3.70977006 -12 6 C-10.37884308 6.63490176 -8.75277293 7.25725792 -7.125 7.875 C-6.22007812 8.22304688 -5.31515625 8.57109375 -4.3828125 8.9296875 C4.58866038 11.76823666 13.18096734 12.36460495 22.5625 12.375 C23.72974609 12.39949219 24.89699219 12.42398437 26.09960938 12.44921875 C32.54834329 12.47101729 37.4420862 11.98598497 43.15576172 8.88623047 C45.79199397 7.61941513 48.13479891 7.70613322 51 8 C48.4345406 10.5654594 46.52313332 10.54046087 43 11 C43 11.66 43 12.32 43 13 C36.93624261 15.12231509 31.39249879 15.308951 25 15.25 C23.98993896 15.24613281 22.97987793 15.24226563 21.93920898 15.23828125 C13.82535619 15.145308 5.98919638 14.41357029 -2 13 C-2 12.34 -2 11.68 -2 11 C-2.83917969 10.94392578 -2.83917969 10.94392578 -3.6953125 10.88671875 C-11.28516771 10.26439943 -18.58530596 8.69875555 -26 7 C-25.67 6.01 -25.34 5.02 -25 4 C-22.84765625 3.12109375 -22.84765625 3.12109375 -20.0625 2.4375 C-18.5775 2.07205078 -18.5775 2.07205078 -17.0625 1.69921875 C-16.051875 1.46847656 -15.04125 1.23773438 -14 1 C-13.071875 0.77957031 -12.14375 0.55914062 -11.1875 0.33203125 C-3.97410316 -1.26736775 -3.97410316 -1.26736775 0 0 Z " fill="#A08C50" transform="translate(156,391)"/>
<path d="M0 0 C1.6498275 0.42218816 3.29483665 0.86324425 4.9375 1.3125 C6.31228516 1.67794922 6.31228516 1.67794922 7.71484375 2.05078125 C8.46894531 2.36402344 9.22304688 2.67726563 10 3 C10.33 3.99 10.66 4.98 11 6 C12.8610544 6.9201297 12.8610544 6.9201297 15.125 7.5 C19.24082772 8.7446263 23.07573899 10.24660678 27 12 C27 12.66 27 13.32 27 14 C27.85078125 14.19142578 27.85078125 14.19142578 28.71875 14.38671875 C34.84050104 16.03246346 39.59800272 18.4560028 44 23 C46.6025946 24.47564587 49.27902069 25.75838808 52 27 C49.13191917 28.43404042 47.00922592 27.53053919 44.0234375 26.73828125 C41.19697267 25.70700354 39.25965718 23.9542981 37 22 C36.2471875 21.7009375 35.494375 21.401875 34.71875 21.09375 C31.63462656 19.85301069 28.9965839 18.27494993 26.1875 16.5 C25.21167969 15.8915625 24.23585938 15.283125 23.23046875 14.65625 C22.49441406 14.1096875 21.75835938 13.563125 21 13 C21 12.34 21 11.68 21 11 C20.02160156 10.85304688 20.02160156 10.85304688 19.0234375 10.703125 C13.40869116 9.74248993 9.39159819 8.69818795 5 5 C5 4.34 5 3.68 5 3 C3.35 2.67 1.7 2.34 0 2 C0 1.34 0 0.68 0 0 Z " fill="#AA9462" transform="translate(544,333)"/>
<path d="M0 0 C1.62418745 -0.08090971 3.24951745 -0.13914995 4.875 -0.1875 C5.77992188 -0.22230469 6.68484375 -0.25710938 7.6171875 -0.29296875 C8.79667969 -0.14794922 8.79667969 -0.14794922 10 0 C10.66 0.99 11.32 1.98 12 3 C15.2018105 3.62498361 15.2018105 3.62498361 18.9375 3.875 C25.02967137 4.50970709 29.78295746 5.89433846 35.28515625 8.69921875 C39.27327374 10.61007217 43.43773546 11.82887896 47.6640625 13.10546875 C50 14 50 14 51 16 C44.04339229 15.42978625 37.68572695 13.98697306 31 12 C31 11.34 31 10.68 31 10 C30.17242188 9.87753906 29.34484375 9.75507813 28.4921875 9.62890625 C24.6403979 8.93523944 20.89555126 7.97147869 17.125 6.9375 C16.43664062 6.75123047 15.74828125 6.56496094 15.0390625 6.37304688 C13.35867486 5.91794189 11.67923678 5.45933322 10 5 C10 4.34 10 3.68 10 3 C6.7 2.34 3.4 1.68 0 1 C0 0.67 0 0.34 0 0 Z " fill="#A18D4F" transform="translate(556,384)"/>
<path d="M0 0 C0.66 0.33 1.32 0.66 2 1 C-0.69824035 3.69824035 -3.34900604 4.03921211 -7 5 C-7.99 5.33 -8.98 5.66 -10 6 C-10 6.66 -10 7.32 -10 8 C-10.79664063 8.32613281 -11.59328125 8.65226562 -12.4140625 8.98828125 C-14.00347656 9.64376953 -14.00347656 9.64376953 -15.625 10.3125 C-17.27822266 10.993125 -17.27822266 10.993125 -18.96484375 11.6875 C-22.08183809 12.97013941 -22.08183809 12.97013941 -25.1875 14.8125 C-29.13950611 16.4811248 -32.76979997 16.253812 -37 16 C-37 15.34 -37 14.68 -37 14 C-36.18208984 13.74476563 -36.18208984 13.74476563 -35.34765625 13.484375 C-30.4743195 11.91824285 -25.83938959 10.09479543 -21.18359375 7.97265625 C-15.56208258 5.46861997 -9.7319727 3.54380997 -3.8828125 1.6484375 C-1.94448586 1.02707171 -1.94448586 1.02707171 0 0 Z " fill="#A08C4E" transform="translate(239,383)"/>
<path d="M0 0 C0.76828125 -0.00386719 1.5365625 -0.00773437 2.328125 -0.01171875 C6.98796251 -0.00379386 11.40372732 0.35487984 16 1.125 C16 1.785 16 2.445 16 3.125 C16.93005859 3.16367187 16.93005859 3.16367187 17.87890625 3.203125 C26.26978613 3.74053215 33.9668324 5.79418889 42 8.125 C42 8.785 42 9.445 42 10.125 C42.99 10.455 43.98 10.785 45 11.125 C44.01 10.980625 43.02 10.83625 42 10.6875 C38.00590535 10.11574821 34.00467063 9.61680166 30 9.125 C29.505 7.64 29.505 7.64 29 6.125 C27.91332031 6.05152344 27.91332031 6.05152344 26.8046875 5.9765625 C25.35449219 5.86441406 25.35449219 5.86441406 23.875 5.75 C22.44800781 5.64558594 22.44800781 5.64558594 20.9921875 5.5390625 C18 5.125 18 5.125 15.23242188 4.125 C11.78372541 3.05809209 8.89126079 2.81008057 5.2890625 2.7109375 C3.42314453 2.65292969 3.42314453 2.65292969 1.51953125 2.59375 C0.23433594 2.5628125 -1.05085938 2.531875 -2.375 2.5 C-3.68339844 2.46132813 -4.99179687 2.42265625 -6.33984375 2.3828125 C-9.55975716 2.28880043 -12.7796688 2.20314179 -16 2.125 C-16 1.795 -16 1.465 -16 1.125 C-10.62238358 0.22396321 -5.44753681 -0.02742049 0 0 Z " fill="#B29F78" transform="translate(296,328.875)"/>
<path d="M0 0 C1.04220703 -0.01611328 2.08441406 -0.03222656 3.15820312 -0.04882812 C10.67659385 -0.05348925 17.36103172 1.18418951 24.5625 3.3125 C24.5625 3.9725 24.5625 4.6325 24.5625 5.3125 C25.2225 5.6425 25.8825 5.9725 26.5625 6.3125 C24.12449034 6.00362547 21.68714633 5.69055338 19.25 5.375 C18.55970703 5.28798828 17.86941406 5.20097656 17.15820312 5.11132812 C14.16107712 4.72039865 11.43799881 4.2709996 8.5625 3.3125 C6.84833065 3.21901268 5.13077796 3.18180131 3.4140625 3.1796875 C1.90585937 3.17775391 1.90585937 3.17775391 0.3671875 3.17578125 C-0.68210937 3.17964844 -1.73140625 3.18351562 -2.8125 3.1875 C-3.8540625 3.18363281 -4.895625 3.17976563 -5.96875 3.17578125 C-7.48082031 3.17771484 -7.48082031 3.17771484 -9.0234375 3.1796875 C-9.9417334 3.18081543 -10.8600293 3.18194336 -11.80615234 3.18310547 C-14.44558069 3.31289736 -16.85397323 3.77897413 -19.4375 4.3125 C-21.77051986 4.35074623 -24.10461508 4.35824284 -26.4375 4.3125 C-18.97837935 -0.6602471 -8.67286241 -0.02671861 0 0 Z " fill="#AB986C" transform="translate(515.4375,326.6875)"/>
<path d="M0 0 C-2.5654594 2.5654594 -4.47686668 2.54046087 -8 3 C-8 3.66 -8 4.32 -8 5 C-14.06375739 7.12231509 -19.60750121 7.308951 -26 7.25 C-27.01006104 7.24613281 -28.02012207 7.24226563 -29.06079102 7.23828125 C-37.17464381 7.145308 -45.01080362 6.41357029 -53 5 C-53 4.34 -53 3.68 -53 3 C-54.32 2.67 -55.64 2.34 -57 2 C-55.62476865 2.14363527 -54.24982598 2.29003517 -52.875 2.4375 C-52.10929688 2.51871094 -51.34359375 2.59992188 -50.5546875 2.68359375 C-48.77121686 2.90448232 -46.9943637 3.18305219 -45.22631836 3.50488281 C-39.73295958 4.3479045 -34.23571633 4.26768404 -28.6875 4.3125 C-27.50220703 4.34150391 -26.31691406 4.37050781 -25.09570312 4.40039062 C-18.57321733 4.44741909 -13.61359899 4.03856779 -7.83544922 0.88842773 C-5.20419852 -0.3851984 -2.86269344 -0.29360958 0 0 Z " fill="#A49B74" transform="translate(207,399)"/>
<path d="M0 0 C7.86977729 -0.07041431 15.70133678 0.14463893 23.5625 0.5 C31.04812858 0.83714943 38.50608208 1.07526323 46 1 C45.67 1.66 45.34 2.32 45 3 C35.38492592 6.20502469 25.22713406 4.91283472 15.375 3.6875 C14.31966064 3.55762695 13.26432129 3.42775391 12.17700195 3.29394531 C3.86710039 2.17658007 3.86710039 2.17658007 0 0 Z " fill="#A28C4A" transform="translate(608,400)"/>
<path d="M0 0 C1.28777344 -0.01224609 2.57554687 -0.02449219 3.90234375 -0.03710938 C5.13339844 -0.03904297 6.36445313 -0.04097656 7.6328125 -0.04296875 C9.32108154 -0.04913208 9.32108154 -0.04913208 11.04345703 -0.05541992 C13.875 0.1875 13.875 0.1875 16.875 2.1875 C16.2766333 2.18226318 15.6782666 2.17702637 15.06176758 2.17163086 C-5.43150245 1.07849058 -5.43150245 1.07849058 -24.78125 6.19921875 C-29.32342258 8.11450152 -34.2641702 8.56241867 -39.125 9.1875 C-36.99084611 6.79040115 -35.37078633 5.70479685 -32.2890625 4.8359375 C-31.55429687 4.62453125 -30.81953125 4.413125 -30.0625 4.1953125 C-29.299375 3.98648437 -28.53625 3.77765625 -27.75 3.5625 C-26.99460937 3.3459375 -26.23921875 3.129375 -25.4609375 2.90625 C-16.81593166 0.45783926 -8.99569163 0.00452955 0 0 Z " fill="#A5894D" transform="translate(294.125,330.8125)"/>
<path d="M0 0 C0.82024658 0.00193359 1.64049316 0.00386719 2.4855957 0.00585938 C9.64638384 0.05599812 16.74240623 0.47340905 23.875 1.125 C23.875 1.785 23.875 2.445 23.875 3.125 C24.803125 3.063125 25.73125 3.00125 26.6875 2.9375 C31.89761138 2.92680162 37.020211 4.29395501 41.875 6.125 C42.37 7.115 42.37 7.115 42.875 8.125 C36.16721378 7.35102467 29.52925699 6.26731412 22.875 5.125 C22.875 4.465 22.875 3.805 22.875 3.125 C9.16089004 1.92501538 -4.4214059 1.49914985 -18.125 3.125 C-17.795 2.465 -17.465 1.805 -17.125 1.125 C-11.41208955 0.11533574 -5.78958758 -0.0333385 0 0 Z " fill="#A79D74" transform="translate(513.125,375.875)"/>
<path d="M0 0 C-3.44069624 2.29379749 -4.72290301 3 -9 3 C-9.433125 3.928125 -9.433125 3.928125 -9.875 4.875 C-11 7 -11 7 -13 9 C-17.31027728 10.26772861 -21.54873111 10.07544524 -26 10 C-26 9.01 -26 8.02 -26 7 C-24.39125 6.87625 -24.39125 6.87625 -22.75 6.75 C-19.00288606 6.37728151 -19.00288606 6.37728151 -17.1796875 4.06640625 C-14.38029585 1.41250269 -12.12280022 0.97851427 -8.375 0.1875 C-7.22773438 -0.06644531 -6.08046875 -0.32039063 -4.8984375 -0.58203125 C-2 -1 -2 -1 0 0 Z " fill="#9E8248" transform="translate(431,413)"/>
<path d="M0 0 C32.81023026 -1.07395758 32.81023026 -1.07395758 44 5 C45.02222787 5.97726669 46.02685132 6.97385106 47 8 C45.20755859 7.58427734 45.20755859 7.58427734 43.37890625 7.16015625 C41.77349691 6.79401026 40.16802475 6.4281396 38.5625 6.0625 C37.77939453 5.88009766 36.99628906 5.69769531 36.18945312 5.50976562 C30.79941266 4.28979762 25.50233888 3.52324544 20 3 C20 2.34 20 1.68 20 1 C13.4 1 6.8 1 0 1 C0 0.67 0 0.34 0 0 Z " fill="#A89D75" transform="translate(292,378)"/>
<path d="M0 0 C12.87 0.99 25.74 1.98 39 3 C39 2.34 39 1.68 39 1 C41.64 0.67 44.28 0.34 47 0 C40.76702751 4.94339197 34.79566258 4.2171492 27.125 4.25 C25.9596875 4.270625 24.794375 4.29125 23.59375 4.3125 C15.34635138 4.34907383 7.94561306 3.19177926 0 1 C0 0.67 0 0.34 0 0 Z " fill="#A18A43" transform="translate(152,400)"/>
<path d="M0 0 C3.83723142 0.63604382 7.11996579 1.77403064 10.6875 3.3125 C11.74582031 3.75980469 12.80414062 4.20710938 13.89453125 4.66796875 C15.77129295 5.47296968 17.6447672 6.28578329 19.51171875 7.11328125 C26.46808083 10.09129411 33.58213828 11.58910987 41 13 C41 13.33 41 13.66 41 14 C35.41507563 14.22931478 30.5943761 13.41773607 25.1875 12.0625 C24.42501953 11.88009766 23.66253906 11.69769531 22.87695312 11.50976562 C17.31457078 10.15728539 17.31457078 10.15728539 15 9 C15 8.34 15 7.68 15 7 C14.28457031 6.87753906 13.56914063 6.75507813 12.83203125 6.62890625 C9.94887287 5.98864625 7.41407527 5.06448444 4.6875 3.9375 C3.36298828 3.39416016 3.36298828 3.39416016 2.01171875 2.83984375 C1.34785156 2.56269531 0.68398438 2.28554688 0 2 C0 1.34 0 0.68 0 0 Z " fill="#AEA37D" transform="translate(625,377)"/>
<path d="M0 0 C-1.88886592 1.3225074 -3.78639839 2.63264256 -5.6875 3.9375 C-6.74324219 4.66839844 -7.79898437 5.39929688 -8.88671875 6.15234375 C-11.75616298 7.85528869 -13.72538283 8.61725254 -17 9 C-17.33 9.99 -17.66 10.98 -18 12 C-18.99 12 -19.98 12 -21 12 C-19.84826645 9.53199953 -18.95216435 7.95216435 -17 6 C-16.195625 5.87625 -15.39125 5.7525 -14.5625 5.625 C-11.87129876 5.25776696 -11.87129876 5.25776696 -10.5625 3.0625 C-7.76534336 -0.62974676 -4.28291476 -1.42763825 0 0 Z " fill="#AA9D73" transform="translate(452,400)"/>
<path d="M0 0 C2.31 0.33 4.62 0.66 7 1 C7 1.99 7 2.98 7 4 C5.0848421 4.81604999 3.16781166 5.62770632 1.25 6.4375 C0.18265625 6.88996094 -0.8846875 7.34242188 -1.984375 7.80859375 C-6.90280299 9.75175507 -10.68047388 10.10229858 -16 10 C-16 9.34 -16 8.68 -16 8 C-14.67935547 7.83564453 -14.67935547 7.83564453 -13.33203125 7.66796875 C-11.58986328 7.43013672 -11.58986328 7.43013672 -9.8125 7.1875 C-8.66394531 7.03667969 -7.51539063 6.88585937 -6.33203125 6.73046875 C-2.98163973 5.99597495 -0.8070271 4.92950074 2 3 C1.34 2.01 0.68 1.02 0 0 Z " fill="#A0915C" transform="translate(670,392)"/>
<path d="M0 0 C4.47603353 0.52046901 7.20458647 1.65045829 11 4 C13.0935495 4.80796682 15.19893982 5.54551193 17.328125 6.25390625 C19 7 19 7 20 9 C14.76824163 9.38281159 11.62197306 8.21854707 7 6 C7 5.34 7 4.68 7 4 C6.401875 3.896875 5.80375 3.79375 5.1875 3.6875 C2.71756736 2.91123545 1.67748765 1.92911079 0 0 Z " fill="#A3925F" transform="translate(336,383)"/>
<path d="M0 0 C-6.29304541 2.14328358 -12.62267685 4.12275039 -19 6 C-19 5.01 -19 4.02 -19 3 C-15.38303467 0.19200473 -12.32145707 -0.45873818 -7.8125 -0.75 C-6.76707031 -0.82734375 -5.72164063 -0.9046875 -4.64453125 -0.984375 C-2 -1 -2 -1 0 0 Z " fill="#A89869" transform="translate(493,380)"/>
<path d="M0 0 C-0.33 0.99 -0.66 1.98 -1 3 C-2.65249487 3.70105843 -4.32367583 4.35800351 -6 5 C-8.10971831 6.31352194 -10.17427983 7.67852646 -12.23046875 9.07421875 C-13.10638672 9.53248047 -13.10638672 9.53248047 -14 10 C-14.66 9.67 -15.32 9.34 -16 9 C-15.01 8.34 -14.02 7.68 -13 7 C-12.7525 6.360625 -12.505 5.72125 -12.25 5.0625 C-9.61088327 0.70795739 -4.75410739 0 0 0 Z " fill="#A88E53" transform="translate(213,362)"/>
<path d="M0 0 C2.0625 0.4375 2.0625 0.4375 4 1 C3.34 1 2.68 1 2 1 C2 1.66 2 2.32 2 3 C0.21046815 3.83790789 -1.58169695 4.67019396 -3.375 5.5 C-4.87160156 6.19609375 -4.87160156 6.19609375 -6.3984375 6.90625 C-9 8 -9 8 -11 8 C-11.33 8.99 -11.66 9.98 -12 11 C-14.0625 11.6875 -14.0625 11.6875 -16 12 C-15.25 10.0625 -15.25 10.0625 -14 8 C-11.875 7.25 -11.875 7.25 -10 7 C-10 6.34 -10 5.68 -10 5 C-9.36191406 4.72285156 -8.72382813 4.44570313 -8.06640625 4.16015625 C-6.82697266 3.61681641 -6.82697266 3.61681641 -5.5625 3.0625 C-4.73878906 2.70285156 -3.91507812 2.34320313 -3.06640625 1.97265625 C-1.05589883 1.16877677 -1.05589883 1.16877677 0 0 Z " fill="#A69D75" transform="translate(470,386)"/>
<path d="M0 0 C1.32 0 2.64 0 4 0 C4.33 0.66 4.66 1.32 5 2 C7.02463255 2.65213292 7.02463255 2.65213292 9 3 C9 3.66 9 4.32 9 5 C10.0725 5.20625 11.145 5.4125 12.25 5.625 C16.70591174 7.2588343 17.77777608 8.91110799 20 13 C16.33175928 11.19922728 12.78074876 9.21932464 9.21875 7.21875 C7.77840434 6.42757422 6.31468281 5.67706276 4.828125 4.9765625 C2.51078029 3.73866469 1.44150846 2.16226269 0 0 Z " fill="#A89D76" transform="translate(352,392)"/>
<path d="M0 0 C4.60123853 0.55214862 8.61924086 1.53974695 13 3 C15.6365741 3.51847265 18.27560766 3.9938237 20.92578125 4.4375 C21.61027344 4.623125 22.29476562 4.80875 23 5 C23.33 5.66 23.66 6.32 24 7 C17.04339229 6.42978625 10.68572695 4.98697306 4 3 C4 2.34 4 1.68 4 1 C2.68 0.67 1.36 0.34 0 0 Z " fill="#A89E79" transform="translate(583,393)"/>
<path d="M0 0 C1.62418745 -0.08090971 3.24951745 -0.13914995 4.875 -0.1875 C5.77992188 -0.22230469 6.68484375 -0.25710938 7.6171875 -0.29296875 C8.79667969 -0.14794922 8.79667969 -0.14794922 10 0 C10.66 0.99 11.32 1.98 12 3 C14.41607417 3.79798218 14.41607417 3.79798218 17.125 4.1875 C18.03507813 4.34605469 18.94515625 4.50460937 19.8828125 4.66796875 C20.93082031 4.83232422 20.93082031 4.83232422 22 5 C22 5.66 22 6.32 22 7 C17.97007218 6.44687265 13.97977076 5.8441938 10 5 C10 4.34 10 3.68 10 3 C6.7 2.34 3.4 1.68 0 1 C0 0.67 0 0.34 0 0 Z " fill="#A69B72" transform="translate(556,384)"/>
<path d="M0 0 C-0.66 0 -1.32 0 -2 0 C-2.33 0.99 -2.66 1.98 -3 3 C-6.19133273 5.21051028 -8.94478238 5.21560042 -12.75 5.125 C-13.73484375 5.10695313 -14.7196875 5.08890625 -15.734375 5.0703125 C-16.85585938 5.03550781 -16.85585938 5.03550781 -18 5 C-15.04433403 3.48795792 -12.05865561 2.10403598 -9 0.8125 C-8.154375 0.44769531 -7.30875 0.08289063 -6.4375 -0.29296875 C-3.80004641 -1.05799936 -2.54482404 -0.92485503 0 0 Z " fill="#A58949" transform="translate(466,341)"/>
<path d="M0 0 C-3.4938871 3.21473632 -7.21329156 3.90279523 -11.75 4.6875 C-12.44738281 4.81705078 -13.14476562 4.94660156 -13.86328125 5.08007812 C-15.57375889 5.39639933 -17.28666725 5.69952747 -19 6 C-14.16384209 0.5363659 -6.9710316 -0.44495946 0 0 Z " fill="#AC9765" transform="translate(274,334)"/>
<path d="M0 0 C0.66 0.33 1.32 0.66 2 1 C-1.44069624 3.29379749 -2.72290301 4 -7 4 C-7.2475 4.61875 -7.495 5.2375 -7.75 5.875 C-9.20628639 8.35068687 -10.37812506 8.95125002 -13 10 C-11.51349031 5.2781457 -11.51349031 5.2781457 -10 3 C-6.5 1.625 -6.5 1.625 -3 1 C-2.01 0.67 -1.02 0.34 0 0 Z " fill="#AA9D6E" transform="translate(429,412)"/>
<path d="M0 0 C-0.63808594 0.19335938 -1.27617187 0.38671875 -1.93359375 0.5859375 C-3.17302734 0.97652344 -3.17302734 0.97652344 -4.4375 1.375 C-5.67306641 1.75785156 -5.67306641 1.75785156 -6.93359375 2.1484375 C-9.17798016 2.80882227 -9.17798016 2.80882227 -10 5 C-9.34 5.33 -8.68 5.66 -8 6 C-10.64 5.67 -13.28 5.34 -16 5 C-15.67 4.01 -15.34 3.02 -15 2 C-12.63671875 1.015625 -12.63671875 1.015625 -9.6875 0.25 C-8.72199219 -0.01296875 -7.75648438 -0.2759375 -6.76171875 -0.546875 C-4.0629274 -0.98967528 -2.54716045 -0.89543883 0 0 Z " fill="#9F9C7F" transform="translate(146,393)"/>
<path d="M0 0 C0.66 0 1.32 0 2 0 C1 3 1 3 -2 5 C-6.53681987 6.77564673 -11.18444316 8.22329728 -16 9 C-13.62916021 6.27821353 -11.3466216 5.11230393 -8 3.8125 C-6.700625 3.29623047 -6.700625 3.29623047 -5.375 2.76953125 C-3 2 -3 2 0 2 C0 1.34 0 0.68 0 0 Z " fill="#AC9F79" transform="translate(199,367)"/>
<path d="M0 0 C1.89693861 0.28438952 3.79252027 0.57783792 5.6875 0.875 C6.74324219 1.03742188 7.79898438 1.19984375 8.88671875 1.3671875 C11.82234041 1.96388852 14.30906502 2.6908965 17 4 C17.33 4.66 17.66 5.32 18 6 C12.17441085 5.36678379 6.45806932 4.18531894 1 2 C0.67 1.34 0.34 0.68 0 0 Z " fill="#A28846" transform="translate(643,387)"/>
<path d="M0 0 C0.58910156 0.21140625 1.17820312 0.4228125 1.78515625 0.640625 C1.00140625 1.07375 0.21765625 1.506875 -0.58984375 1.953125 C-3.4318275 3.53282747 -3.4318275 3.53282747 -5.21484375 6.640625 C-7.91944134 8.06409741 -9.48220092 8.75943195 -12.52734375 8.265625 C-13.08421875 8.059375 -13.64109375 7.853125 -14.21484375 7.640625 C-13.53421875 7.24875 -12.85359375 6.856875 -12.15234375 6.453125 C-9.24207412 4.65742672 -6.6227686 2.67055074 -3.9609375 0.53125 C-2.21484375 -0.359375 -2.21484375 -0.359375 0 0 Z " fill="#A18945" transform="translate(458.21484375,392.359375)"/>
<path d="M0 0 C4.05819183 0.65503282 7.53971282 1.94559121 11.3125 3.5625 C12.38113281 4.01753906 13.44976563 4.47257812 14.55078125 4.94140625 C15.76314453 5.46541016 15.76314453 5.46541016 17 6 C17 6.33 17 6.66 17 7 C10.81839396 6.46246904 5.673142 4.45417612 0 2 C0 1.34 0 0.68 0 0 Z " fill="#AA9C75" transform="translate(625,377)"/>
<path d="M0 0 C4.59407832 0.49665712 4.59407832 0.49665712 6.5625 2.9375 C7.036875 3.618125 7.51125 4.29875 8 5 C10.08334635 6.2516467 10.08334635 6.2516467 12 7 C10.3125 7.6875 10.3125 7.6875 8 8 C5.25 6.6875 5.25 6.6875 3 5 C3 4.34 3 3.68 3 3 C2.01 2.67 1.02 2.34 0 2 C0 1.34 0 0.68 0 0 Z " fill="#E6DEC4" transform="translate(390,416)"/>
<path d="M0 0 C-2.68637711 2.68637711 -5.3784777 2.98343234 -9 4 C-9.99 4.66 -10.98 5.32 -12 6 C-14.6875 6.125 -14.6875 6.125 -17 6 C-13.20868422 2.33506141 -5.3124482 -2.6562241 0 0 Z " fill="#A38842" transform="translate(241,384)"/>
<path d="M0 0 C-1 2 -1 2 -2.890625 2.81640625 C-6.90241296 4.08503456 -10.83476665 5.32818817 -15 6 C-14.34 5.67 -13.68 5.34 -13 5 C-13 4.34 -13 3.68 -13 3 C-11.21189234 2.30329584 -9.41937948 1.61788811 -7.625 0.9375 C-6.62726563 0.55464844 -5.62953125 0.17179687 -4.6015625 -0.22265625 C-2 -1 -2 -1 0 0 Z " fill="#AC996F" transform="translate(252,342)"/>
<path d="M0 0 C0 0.66 0 1.32 0 2 C-1.051875 2.4021875 -1.051875 2.4021875 -2.125 2.8125 C-5.09739495 3.98691027 -5.09739495 3.98691027 -8.1875 5.6875 C-9.115625 6.120625 -10.04375 6.55375 -11 7 C-11.66 6.67 -12.32 6.34 -13 6 C-9.79001231 2.03472109 -5.0381893 0 0 0 Z " fill="#A2883E" transform="translate(474,384)"/>
<path d="M0 0 C-2.28611202 2.65860951 -4.02133191 3.53565794 -7.4375 4.25 C-8.19933594 4.42015625 -8.96117187 4.5903125 -9.74609375 4.765625 C-12.11436516 5.01189239 -13.74665061 4.71860801 -16 4 C-15.01 4 -14.02 4 -13 4 C-13 3.34 -13 2.68 -13 2 C-11.21089097 1.47044766 -9.41860852 0.9516063 -7.625 0.4375 C-6.62726563 0.14746094 -5.62953125 -0.14257812 -4.6015625 -0.44140625 C-2 -1 -2 -1 0 0 Z " fill="#A89D7A" transform="translate(162,387)"/>
<path d="M0 0 C-2.5654594 2.5654594 -4.47686668 2.54046087 -8 3 C-8 3.66 -8 4.32 -8 5 C-9.98 5.33 -11.96 5.66 -14 6 C-9.46146857 1.13728775 -6.7130701 -0.30513955 0 0 Z " fill="#A6996E" transform="translate(207,399)"/>
<path d="M0 0 C0.91007812 0.00902344 1.82015625 0.01804687 2.7578125 0.02734375 C3.45648438 0.03894531 4.15515625 0.05054688 4.875 0.0625 C3.875 2.0625 3.875 2.0625 2.25 2.6875 C-0.8910575 3.18345645 -3.95101831 3.12353811 -7.125 3.0625 C-7.125 2.4025 -7.125 1.7425 -7.125 1.0625 C-4.60024538 -0.19987731 -2.81299534 -0.03606404 0 0 Z " fill="#A18B4A" transform="translate(491.125,376.9375)"/>
<path d="M0 0 C-1.60032137 0.84069415 -3.20541171 1.67231505 -4.8125 2.5 C-6.15248047 3.19609375 -6.15248047 3.19609375 -7.51953125 3.90625 C-10 5 -10 5 -13 5 C-13 4.34 -13 3.68 -13 3 C-11.40084119 2.30093058 -9.79544955 1.61610532 -8.1875 0.9375 C-7.29417969 0.55464844 -6.40085938 0.17179687 -5.48046875 -0.22265625 C-3 -1 -3 -1 0 0 Z " fill="#A49A72" transform="translate(221,394)"/>
<path d="M0 0 C2.12579013 0.05988141 4.25078413 0.14862744 6.375 0.25 C8.15003906 0.31960938 8.15003906 0.31960938 9.9609375 0.390625 C13 1 13 1 14.4140625 3.046875 C14.60742188 3.69140625 14.80078125 4.3359375 15 5 C12.87308203 4.55065113 10.74849961 4.09023527 8.625 3.625 C7.44164062 3.36976563 6.25828125 3.11453125 5.0390625 2.8515625 C2 2 2 2 0 0 Z " fill="#A3893F" transform="translate(321,378)"/>
<path d="M0 0 C-3.22791555 2.1519437 -4.28400809 2.20086443 -8 2 C-8 2.66 -8 3.32 -8 4 C-10.31 4.33 -12.62 4.66 -15 5 C-10.04594313 0.61212106 -6.49568185 -0.18559091 0 0 Z " fill="#A99D78" transform="translate(244,385)"/>
<path d="M0 0 C2.31 0.33 4.62 0.66 7 1 C7 1.99 7 2.98 7 4 C5.02 4.66 3.04 5.32 1 6 C1.20625 5.38125 1.4125 4.7625 1.625 4.125 C1.74875 3.42375 1.8725 2.7225 2 2 C1.34 1.34 0.68 0.68 0 0 Z " fill="#A2A385" transform="translate(670,392)"/>
<path d="M0 0 C1.65 0 3.3 0 5 0 C5.33 0.99 5.66 1.98 6 3 C5.67 3.66 5.34 4.32 5 5 C2.71484375 5.4140625 2.71484375 5.4140625 -0.0625 5.625 C-0.98160156 5.69976562 -1.90070312 5.77453125 -2.84765625 5.8515625 C-3.91306641 5.92503906 -3.91306641 5.92503906 -5 6 C-5 5.67 -5 5.34 -5 5 C-2.36 4.67 0.28 4.34 3 4 C3 3.01 3 2.02 3 1 C2.01 0.67 1.02 0.34 0 0 Z " fill="#A6873B" transform="translate(662,394)"/>
<path d="M0 0 C-0.33 0.66 -0.66 1.32 -1 2 C-3.50390625 2.6328125 -3.50390625 2.6328125 -6.5625 3.125 C-8.08037109 3.37636719 -8.08037109 3.37636719 -9.62890625 3.6328125 C-10.80259766 3.81457031 -10.80259766 3.81457031 -12 4 C-11.67 3.01 -11.34 2.02 -11 1 C-7.50970582 -0.47666292 -3.72563614 -0.07164685 0 0 Z " fill="#A6894B" transform="translate(496,331)"/>
<path d="M0 0 C-2.06756277 2.7972908 -3.14440371 3.02692273 -6.6875 3.6875 C-7.780625 3.790625 -8.87375 3.89375 -10 4 C-6.87839899 0.56623888 -4.64008112 -1.54669371 0 0 Z " fill="#A38944" transform="translate(432,410)"/>
<path d="M0 0 C2.31 0.33 4.62 0.66 7 1 C7 1.66 7 2.32 7 3 C7.99 3.33 8.98 3.66 10 4 C7.03 3.67 4.06 3.34 1 3 C0.67 2.01 0.34 1.02 0 0 Z " fill="#A48947" transform="translate(567,385)"/>
<path d="M0 0 C4.56454251 0.54339792 7.9728176 1.79463821 12 4 C12 4.66 12 5.32 12 6 C7.76570244 4.68938409 3.92592596 3.05643741 0 1 C0 0.67 0 0.34 0 0 Z " fill="#ABA17C" transform="translate(379,410)"/>
<path d="M0 0 C2.125 0.375 2.125 0.375 4 1 C3.360625 1.268125 2.72125 1.53625 2.0625 1.8125 C-0.33131686 2.88667752 -0.33131686 2.88667752 -1 6 C-1.99 6 -2.98 6 -4 6 C-2.84826645 3.53199953 -1.95216435 1.95216435 0 0 Z " fill="#A49563" transform="translate(435,406)"/>
<path d="M0 0 C-5.5 4 -5.5 4 -10 4 C-10 3.34 -10 2.68 -10 2 C-8.71211992 1.46987262 -7.41953322 0.9511671 -6.125 0.4375 C-5.40570313 0.14746094 -4.68640625 -0.14257812 -3.9453125 -0.44140625 C-2 -1 -2 -1 0 0 Z " fill="#A89E79" transform="translate(178,380)"/>
<path d="M0 0 C-2.31 2.31 -4.62 4.62 -7 7 C-7.66 6.67 -8.32 6.34 -9 6 C-4.625 -2.3125 -4.625 -2.3125 0 0 Z " fill="#A7925E" transform="translate(395,334)"/>
<path d="M0 0 C-0.33 1.32 -0.66 2.64 -1 4 C-3.31 4.33 -5.62 4.66 -8 5 C-3.16129032 0 -3.16129032 0 0 0 Z " fill="#AF9D6E" transform="translate(219,357)"/>
<path d="M0 0 C-3.16240582 2.10827055 -4.50657469 2.33817465 -8.1875 2.625 C-9.53908203 2.73714844 -9.53908203 2.73714844 -10.91796875 2.8515625 C-11.94857422 2.92503906 -11.94857422 2.92503906 -13 3 C-9.54666565 -0.45333435 -4.63654999 -1.85462 0 0 Z " fill="#A98D4F" transform="translate(479,337)"/>
<path d="M0 0 C3 0 3 0 5.625 2.375 C8 5 8 5 9 7 C5.21616321 6.07506212 3.43306306 5.60628829 1.125 2.375 C0.75375 1.59125 0.3825 0.8075 0 0 Z " fill="#A09360" transform="translate(369,401)"/>
<path d="M0 0 C-0.99 0.33 -1.98 0.66 -3 1 C-3 1.66 -3 2.32 -3 3 C-4.98 3 -6.96 3 -9 3 C-9 2.34 -9 1.68 -9 1 C-6.04335481 -0.4783226 -3.25770263 -0.06032783 0 0 Z " fill="#A28842" transform="translate(211,396)"/>
<path d="M0 0 C2.475 0.495 2.475 0.495 5 1 C5.33 1.99 5.66 2.98 6 4 C6.99 4.33 7.98 4.66 9 5 C7.68 5 6.36 5 5 5 C5 4.34 5 3.68 5 3 C3.35 3 1.7 3 0 3 C0 2.01 0 1.02 0 0 Z " fill="#AD9A6C" transform="translate(603,365)"/>
<path d="M0 0 C1.65 0 3.3 0 5 0 C5.33 1.32 5.66 2.64 6 4 C3.03 3.505 3.03 3.505 0 3 C0 2.01 0 1.02 0 0 Z " fill="#9F8540" transform="translate(395,415)"/>
<path d="M0 0 C4.3890815 0.51035831 7.33708062 1.52214277 11 4 C7.57914854 4 5.18279814 3.21894397 2 2 C1.34 1.34 0.68 0.68 0 0 Z " fill="#A18C48" transform="translate(336,383)"/>
<path d="M0 0 C4.455 1.98 4.455 1.98 9 4 C9 4.33 9 4.66 9 5 C5.625 4.75 5.625 4.75 2 4 C1.34 2.68 0.68 1.36 0 0 Z " fill="#B5A280" transform="translate(616,371)"/>
</svg>
